<svg width="866" height="120" viewBox="0 0 866 120" fill="none" xmlns="http://www.w3.org/2000/svg">
<path d="M278.968 115.409C278.567 115.409 278.197 115.183 278.022 114.818L276.418 111.282C276.192 110.779 276.428 110.198 276.953 109.981C277.477 109.764 278.084 109.991 278.31 110.493L279.914 114.03C280.14 114.532 279.904 115.114 279.379 115.33C279.235 115.39 279.102 115.409 278.968 115.409Z" fill="white" fill-opacity="0.2"/>
<path d="M205.904 5.12313C205.719 5.12313 205.533 5.07387 205.359 4.97536L200.124 1.87218C199.641 1.58649 199.497 0.975703 199.795 0.512688C200.093 0.0496737 200.731 -0.0882455 201.214 0.197444L206.449 3.30063C206.932 3.58632 207.076 4.1971 206.778 4.66012C206.582 4.95566 206.253 5.12313 205.904 5.12313Z" fill="white" fill-opacity="0.2"/>
<path d="M36.5439 5.14282C36.0092 5.14282 35.5567 4.74877 35.5156 4.22665C35.4745 3.68482 35.9064 3.21195 36.472 3.17255L51.9076 2.11845C52.4834 2.0889 52.9668 2.4928 53.0079 3.03463C53.049 3.57645 52.6171 4.04932 52.0515 4.08873L36.6262 5.14282C36.5954 5.14282 36.5748 5.14282 36.5439 5.14282Z" fill="white" fill-opacity="0.2"/>
<path d="M255.882 106.011C255.553 106.011 255.223 105.863 255.028 105.578L252.488 101.962C252.169 101.509 252.293 100.898 252.766 100.593C253.239 100.287 253.876 100.406 254.195 100.859L256.735 104.474C257.054 104.927 256.931 105.538 256.457 105.844C256.272 105.962 256.077 106.011 255.882 106.011Z" fill="white" fill-opacity="0.2"/>
<path d="M110.555 115.705C110.277 115.705 110.01 115.596 109.804 115.399C109.413 115.005 109.434 114.385 109.845 114.01L111.799 112.247C112.21 111.873 112.858 111.892 113.249 112.286C113.64 112.68 113.619 113.301 113.208 113.675L111.254 115.439C111.058 115.616 110.801 115.705 110.555 115.705Z" fill="white" fill-opacity="0.2"/>
<path d="M254.113 59.6111C254.031 59.6111 253.948 59.6012 253.866 59.5815C253.311 59.4535 252.971 58.9215 253.105 58.3895L253.917 55.1484C254.051 54.6164 254.606 54.2913 255.162 54.4194C255.717 54.5475 256.056 55.0794 255.923 55.6114L255.11 58.8525C254.997 59.3057 254.576 59.6111 254.113 59.6111Z" fill="white" fill-opacity="0.2"/>
<path d="M128.962 6.59097C128.592 6.59097 128.232 6.39394 128.047 6.059C127.79 5.57628 127.985 4.9852 128.489 4.72906L135.379 1.31063C135.883 1.06435 136.5 1.25153 136.767 1.73424C137.024 2.21696 136.829 2.80804 136.325 3.06418L129.435 6.48261C129.281 6.55157 129.116 6.59097 128.962 6.59097Z" fill="white" fill-opacity="0.2"/>
<path d="M193.203 101.608C193.07 101.608 192.936 101.588 192.813 101.529L186.992 99.2038C186.468 98.9969 186.221 98.4157 186.437 97.9132C186.653 97.4108 187.26 97.1744 187.784 97.3813L193.605 99.6963C194.129 99.9032 194.376 100.484 194.16 100.987C193.985 101.381 193.605 101.608 193.203 101.608Z" fill="white" fill-opacity="0.2"/>
<path d="M113.012 14.6593C112.642 14.6593 112.282 14.4622 112.097 14.1273L106.122 3.19225C105.855 2.70954 106.05 2.11845 106.554 1.86232C107.058 1.61603 107.675 1.79336 107.943 2.27608L113.917 13.2111C114.185 13.6938 113.989 14.2849 113.485 14.541C113.331 14.6199 113.177 14.6593 113.012 14.6593Z" fill="white" fill-opacity="0.2"/>
<path d="M222.162 6.79785C221.997 6.79785 221.822 6.75845 221.668 6.67964C221.175 6.41365 220.989 5.81272 221.267 5.33985L223.242 1.91157C223.519 1.43871 224.136 1.26138 224.64 1.52737C225.134 1.79336 225.319 2.39429 225.041 2.86716L223.067 6.29543C222.882 6.61068 222.522 6.79785 222.162 6.79785Z" fill="white" fill-opacity="0.2"/>
<path d="M242.215 12.2161C242.153 12.2161 242.102 12.2161 242.04 12.2063C241.485 12.1176 241.104 11.6053 241.197 11.0635L242.585 3.35972C242.677 2.82775 243.212 2.46325 243.778 2.55191C244.333 2.64057 244.714 3.15284 244.621 3.69467L243.233 11.3984C243.14 11.8812 242.698 12.2161 242.215 12.2161Z" fill="white" fill-opacity="0.2"/>
<path d="M252.221 34.9334C251.737 34.9334 251.295 34.5984 251.213 34.1256L250.359 29.6038C250.257 29.0718 250.627 28.5595 251.192 28.461C251.748 28.3625 252.282 28.7172 252.385 29.259L253.239 33.7808C253.342 34.3127 252.971 34.825 252.406 34.9235C252.344 34.9235 252.282 34.9334 252.221 34.9334Z" fill="white" fill-opacity="0.2"/>
<path d="M268.87 72.5263C268.386 72.5263 267.955 72.2012 267.862 71.7283C267.749 71.1963 268.119 70.6742 268.674 70.5757L277.066 69.0093C277.621 68.9009 278.166 69.2556 278.269 69.7876C278.382 70.3195 278.012 70.8417 277.457 70.9402L269.065 72.5065C269.003 72.5262 268.931 72.5263 268.87 72.5263Z" fill="white" fill-opacity="0.2"/>
<path d="M165.613 98.6619C165.284 98.6619 164.965 98.5142 164.769 98.2383C164.44 97.795 164.564 97.1744 165.026 96.869L167.608 95.145C168.07 94.8297 168.718 94.948 169.037 95.3913C169.366 95.8346 169.243 96.4552 168.78 96.7606L166.199 98.4846C166.024 98.6028 165.818 98.6619 165.613 98.6619Z" fill="white" fill-opacity="0.2"/>
<path d="M144.387 25.811C144.028 25.811 143.678 25.6337 143.493 25.3086L141.909 22.5994C141.631 22.1266 141.806 21.5256 142.3 21.2597C142.793 20.9937 143.421 21.1611 143.698 21.634L145.282 24.3431C145.56 24.816 145.385 25.4169 144.891 25.6829C144.737 25.7716 144.562 25.811 144.387 25.811Z" fill="white" fill-opacity="0.2"/>
<path d="M93.052 104.317C92.8669 104.317 92.6818 104.267 92.507 104.169C92.0236 103.883 91.8797 103.272 92.1779 102.809L96.6307 95.9232C96.9289 95.4602 97.5665 95.3223 98.0498 95.608C98.5331 95.8937 98.6771 96.5045 98.3789 96.9675L93.9261 103.854C93.7307 104.149 93.3914 104.317 93.052 104.317Z" fill="white" fill-opacity="0.2"/>
<path d="M232.127 104.494C231.777 104.494 231.427 104.317 231.232 104.001C230.944 103.529 231.108 102.928 231.602 102.652L233.967 101.342C234.461 101.066 235.088 101.233 235.376 101.696C235.664 102.169 235.5 102.77 235.006 103.046L232.641 104.356C232.476 104.445 232.301 104.494 232.127 104.494Z" fill="white" fill-opacity="0.2"/>
<path d="M206.5 25.9095C206.15 25.9095 205.811 25.742 205.616 25.4366L202.222 20.0775C201.924 19.6145 202.088 19.0037 202.572 18.7279C203.055 18.4422 203.693 18.5998 203.981 19.0628L207.374 24.422C207.672 24.885 207.508 25.4958 207.025 25.7716C206.86 25.8603 206.675 25.9095 206.5 25.9095Z" fill="white" fill-opacity="0.2"/>
<path d="M28.7079 74.4669C28.5845 74.4669 28.4508 74.4472 28.3274 74.398L18.3729 70.5954C17.8485 70.3983 17.5914 69.8171 17.797 69.3147C18.0027 68.8122 18.6094 68.5561 19.1339 68.763L29.0884 72.5656C29.6128 72.7627 29.8699 73.3439 29.6642 73.8463C29.4997 74.2305 29.1192 74.4669 28.7079 74.4669Z" fill="white" fill-opacity="0.2"/>
<path d="M3.2561 91.165C3.20469 91.165 3.15327 91.165 3.10185 91.1552C2.53626 91.0764 2.15576 90.574 2.23803 90.042L2.80363 86.3477C2.8859 85.8059 3.41036 85.4315 3.96567 85.5202C4.53126 85.599 4.91175 86.1014 4.82948 86.6334L4.26389 90.3277C4.19191 90.8104 3.76 91.165 3.2561 91.165Z" fill="white" fill-opacity="0.2"/>
<path d="M276.294 53.119C276.253 53.119 276.223 53.119 276.181 53.1092L272.849 52.7742C272.284 52.7151 271.873 52.2324 271.934 51.6906C271.996 51.1487 272.49 50.7547 273.065 50.8138L276.397 51.1487C276.963 51.2078 277.374 51.6906 277.313 52.2324C277.261 52.7447 276.819 53.119 276.294 53.119Z" fill="white" fill-opacity="0.2"/>
<path d="M183.444 7.08355C183.064 7.08355 182.704 6.88652 182.519 6.53187L180.514 2.66028C180.256 2.17756 180.472 1.58648 180.976 1.3402C181.49 1.09391 182.097 1.30079 182.354 1.78351L184.36 5.6551C184.617 6.13781 184.401 6.7289 183.897 6.97518C183.753 7.05399 183.599 7.08355 183.444 7.08355Z" fill="white" fill-opacity="0.2"/>
<path d="M36.6468 53.0599C36.544 53.0599 36.4411 53.0501 36.3486 53.0205L24.9544 49.6907C24.4094 49.5331 24.1009 48.9814 24.2757 48.4593C24.4402 47.9372 25.0161 47.6417 25.5612 47.8091L36.9553 51.1389C37.5003 51.2965 37.8089 51.8482 37.634 52.3703C37.5003 52.7841 37.089 53.0599 36.6468 53.0599Z" fill="white" fill-opacity="0.2"/>
<path d="M274.32 96.9576C274.207 96.9576 274.104 96.9379 273.991 96.9084C273.456 96.731 273.158 96.1794 273.343 95.6572L275.688 88.9583C275.873 88.446 276.449 88.1702 276.994 88.3377C277.528 88.515 277.827 89.0667 277.642 89.5888L275.297 96.2877C275.153 96.6916 274.752 96.9576 274.32 96.9576Z" fill="white" fill-opacity="0.2"/>
<path d="M197.44 82.0328C196.957 82.0328 196.525 81.6979 196.432 81.225L194.91 73.403C194.808 72.871 195.178 72.3587 195.733 72.2504C196.288 72.1519 196.823 72.5065 196.936 73.0385L198.458 80.8605C198.561 81.3925 198.191 81.9047 197.636 82.0131C197.574 82.0229 197.512 82.0328 197.44 82.0328Z" fill="white" fill-opacity="0.2"/>
<path d="M161.87 53.9071C161.427 53.9071 161.016 53.6313 160.882 53.1978L156.954 40.194C156.8 39.6719 157.108 39.1301 157.653 38.9724C158.198 38.8148 158.764 39.1202 158.928 39.6423L162.857 52.6461C163.011 53.1683 162.702 53.7101 162.157 53.8677C162.065 53.8973 161.962 53.9071 161.87 53.9071Z" fill="white" fill-opacity="0.2"/>
<path d="M1.98097 69.8368C1.43595 69.8368 0.973187 69.423 0.952619 68.8911L0.541278 59.2761C0.520711 58.7343 0.962903 58.2713 1.5285 58.2516C2.08381 58.2319 2.57742 58.6555 2.59799 59.1973L3.00933 68.8123C3.0299 69.3541 2.5877 69.8171 2.02211 69.8368C2.01182 69.8368 2.00154 69.8368 1.98097 69.8368Z" fill="white" fill-opacity="0.2"/>
<path d="M212.804 113.153C212.3 113.153 211.858 112.799 211.786 112.296L210.85 105.735C210.778 105.193 211.169 104.701 211.734 104.622C212.29 104.543 212.814 104.927 212.896 105.469L213.832 112.03C213.904 112.572 213.513 113.065 212.948 113.143C212.896 113.153 212.845 113.153 212.804 113.153Z" fill="white" fill-opacity="0.2"/>
<path d="M54.8795 81.4614C54.7355 81.4614 54.5916 81.4319 54.4579 81.3728L43.9173 76.851C43.4031 76.6244 43.1666 76.0432 43.4031 75.5506C43.6396 75.058 44.2463 74.8314 44.7605 75.058L55.3011 79.5798C55.8153 79.8064 56.0518 80.3876 55.8153 80.8802C55.6508 81.2447 55.2703 81.4614 54.8795 81.4614Z" fill="white" fill-opacity="0.2"/>
<path d="M121.291 32.4607C120.869 32.4607 120.478 32.2144 120.324 31.8105C120.129 31.2982 120.406 30.7367 120.931 30.5495L125.527 28.9339C126.062 28.7467 126.648 29.0127 126.844 29.5151C127.039 30.0274 126.761 30.5889 126.237 30.7761L121.64 32.3917C121.527 32.441 121.404 32.4607 121.291 32.4607Z" fill="white" fill-opacity="0.2"/>
<path d="M120.931 96.4257C120.365 96.4257 119.902 95.9922 119.902 95.4504C119.902 94.9086 120.355 94.4652 120.92 94.4554L132.366 94.3667C132.973 94.3372 133.394 94.8002 133.405 95.342C133.405 95.8838 132.952 96.3272 132.387 96.337L120.931 96.4257C120.941 96.4257 120.941 96.4257 120.931 96.4257Z" fill="white" fill-opacity="0.2"/>
<path d="M185.851 59.9066C185.522 59.9066 185.193 59.7588 184.997 59.4732L182.982 56.6261C182.663 56.1729 182.786 55.5622 183.259 55.2568C183.732 54.9514 184.37 55.0696 184.689 55.5228L186.704 58.3698C187.023 58.823 186.9 59.4337 186.427 59.7391C186.241 59.8574 186.046 59.9066 185.851 59.9066Z" fill="white" fill-opacity="0.2"/>
<path d="M107.418 81.0477C107.058 81.0477 106.709 80.8703 106.523 80.5452L100.724 70.6939C100.446 70.221 100.621 69.6201 101.114 69.3541C101.608 69.0881 102.235 69.2556 102.513 69.7284L108.313 79.5798C108.59 80.0527 108.416 80.6536 107.922 80.9196C107.768 81.0083 107.593 81.0477 107.418 81.0477Z" fill="white" fill-opacity="0.2"/>
<path d="M175.289 79.501C175.053 79.501 174.827 79.4222 174.631 79.2744L168.451 74.3389C168.019 73.9941 167.957 73.3734 168.317 72.9498C168.677 72.5262 169.325 72.477 169.767 72.8218L175.948 77.7573C176.38 78.1021 176.441 78.7227 176.081 79.1463C175.876 79.3828 175.588 79.501 175.289 79.501Z" fill="white" fill-opacity="0.2"/>
<path d="M53.3164 39.268C52.7919 39.268 52.3394 38.8838 52.2983 38.3715L50.8689 23.5551C50.8175 23.0132 51.2288 22.5305 51.7944 22.4813C52.36 22.4221 52.8639 22.8261 52.9153 23.3679L54.3447 38.1843C54.3961 38.7262 53.9848 39.2089 53.4192 39.2581C53.3781 39.268 53.3472 39.268 53.3164 39.268Z" fill="white" fill-opacity="0.2"/>
<path d="M128.88 75.4521C128.633 75.4521 128.386 75.3733 128.191 75.196L126.072 73.3735C125.651 73.009 125.61 72.3883 125.99 71.9844C126.371 71.5805 127.019 71.5411 127.44 71.9056L129.559 73.7281C129.98 74.0926 130.021 74.7132 129.641 75.1172C129.445 75.3437 129.158 75.4521 128.88 75.4521Z" fill="white" fill-opacity="0.2"/>
<path d="M273.487 36.4308C273.466 36.4308 273.446 36.4308 273.425 36.4308C272.86 36.4012 272.428 35.9284 272.459 35.3866L273.281 21.9788C273.312 21.437 273.806 21.0134 274.371 21.0528C274.937 21.0824 275.369 21.5552 275.338 22.0971L274.515 35.5048C274.474 36.0269 274.022 36.4308 273.487 36.4308Z" fill="white" fill-opacity="0.2"/>
<path d="M163.001 20.9149C162.507 20.9149 162.065 20.5701 161.983 20.0873C161.89 19.5554 162.271 19.0431 162.836 18.9544L171.649 17.5752C172.204 17.4866 172.739 17.8511 172.832 18.3929C172.924 18.9347 172.544 19.4372 171.978 19.5258L163.165 20.905C163.114 20.905 163.062 20.9149 163.001 20.9149Z" fill="white" fill-opacity="0.2"/>
<path d="M148.974 115.468C148.686 115.468 148.398 115.35 148.203 115.133L142.598 108.957C142.228 108.543 142.269 107.922 142.701 107.568C143.133 107.213 143.781 107.252 144.151 107.666L149.755 113.843C150.126 114.257 150.085 114.877 149.653 115.232C149.447 115.39 149.21 115.468 148.974 115.468Z" fill="white" fill-opacity="0.2"/>
<path d="M46.3544 120C46.0768 120 45.8094 119.892 45.6037 119.685L37.7471 111.656C37.3563 111.262 37.3769 110.631 37.7985 110.267C38.2099 109.892 38.868 109.912 39.2485 110.316L47.1051 118.345C47.4959 118.739 47.4753 119.37 47.0537 119.734C46.8583 119.911 46.6115 120 46.3544 120Z" fill="white" fill-opacity="0.2"/>
<path d="M254.195 84.6139C254.051 84.6139 253.897 84.5843 253.753 84.5154L239.284 77.9149C238.77 77.6785 238.554 77.0973 238.801 76.6047C239.047 76.1121 239.664 75.9052 240.168 76.1417L254.637 82.7421C255.151 82.9785 255.367 83.5598 255.121 84.0523C254.946 84.407 254.576 84.6139 254.195 84.6139Z" fill="white" fill-opacity="0.2"/>
<path d="M233.433 57.4241C233.402 57.4241 233.371 57.4241 233.34 57.4241C232.775 57.3748 232.353 56.8921 232.415 56.3503L233.052 49.6908C233.104 49.1489 233.607 48.745 234.173 48.8041C234.739 48.8534 235.16 49.3361 235.099 49.8779L234.461 56.5375C234.41 57.0399 233.957 57.4241 233.433 57.4241Z" fill="white" fill-opacity="0.2"/>
<path d="M212.002 55.3947C211.704 55.3947 211.416 55.2765 211.21 55.04L203.045 45.7305C202.675 45.3167 202.736 44.6961 203.168 44.3414C203.6 43.9868 204.248 44.0459 204.618 44.4597L212.783 53.7692C213.154 54.183 213.092 54.8036 212.66 55.1583C212.475 55.3159 212.238 55.3947 212.002 55.3947Z" fill="white" fill-opacity="0.2"/>
<path d="M21.4477 99.4303C21.0878 99.4303 20.7381 99.2432 20.5427 98.9279C20.2651 98.4551 20.4502 97.8541 20.9438 97.5881L29.3763 93.1058C29.8699 92.8398 30.4972 93.0171 30.7749 93.49C31.0525 93.9628 30.8674 94.5638 30.3738 94.8298L21.9413 99.3121C21.7871 99.3909 21.6122 99.4303 21.4477 99.4303Z" fill="white" fill-opacity="0.2"/>
<path d="M87.684 7.57613C87.1904 7.57613 86.7585 7.23133 86.6659 6.74861L85.7404 1.42887C85.6479 0.896894 86.0283 0.384622 86.5837 0.29596C87.139 0.207298 87.6737 0.571798 87.7663 1.10377L88.6918 6.42351C88.7843 6.95549 88.4038 7.46776 87.8485 7.55642C87.7971 7.56627 87.7354 7.57613 87.684 7.57613Z" fill="white" fill-opacity="0.2"/>
<path d="M123.193 55.7789C122.782 55.7789 122.401 55.5425 122.237 55.1583C122.031 54.6558 122.288 54.0845 122.813 53.8776L136.479 48.6662C137.004 48.4692 137.6 48.7155 137.816 49.2179C138.022 49.7203 137.765 50.2917 137.24 50.4986L123.574 55.7099C123.44 55.7493 123.316 55.7789 123.193 55.7789Z" fill="white" fill-opacity="0.2"/>
<path d="M72.3615 45.7699C71.9193 45.7699 71.508 45.494 71.3743 45.0704C71.2097 44.5483 71.5182 43.9966 72.0633 43.839L83.7968 40.4403C84.3418 40.2827 84.9177 40.5782 85.0822 41.1003C85.2468 41.6225 84.9383 42.1741 84.3932 42.3317L72.6597 45.7305C72.5569 45.76 72.4643 45.7699 72.3615 45.7699Z" fill="white" fill-opacity="0.2"/>
<path d="M80.4341 66.3987C80.0536 66.3987 79.6834 66.1918 79.5086 65.847C79.2618 65.3544 79.4777 64.7634 79.9816 64.5269L84.6915 62.3399C85.2056 62.1035 85.8227 62.3104 86.0695 62.7931C86.3163 63.2856 86.1003 63.8767 85.5964 64.1132L80.8866 66.3002C80.7323 66.3593 80.5781 66.3987 80.4341 66.3987Z" fill="white" fill-opacity="0.2"/>
<path d="M98.5228 28.2147C98.2863 28.2147 98.0395 28.1359 97.8441 27.9685L95.8183 26.2642C95.3864 25.9095 95.3452 25.279 95.7257 24.8751C96.0959 24.4712 96.7541 24.422 97.1757 24.7865L99.2016 26.4908C99.6335 26.8454 99.6746 27.4759 99.2941 27.8798C99.0987 28.0965 98.8108 28.2147 98.5228 28.2147Z" fill="white" fill-opacity="0.2"/>
<path d="M155.905 4.02961C155.555 4.02961 155.216 3.86214 155.021 3.5469C154.733 3.08388 154.887 2.4731 155.381 2.19726L159 0.138321C159.484 -0.137518 160.121 0.0102531 160.409 0.483119C160.697 0.946134 160.543 1.55692 160.049 1.83276L156.429 3.89169C156.265 3.99021 156.09 4.02961 155.905 4.02961Z" fill="white" fill-opacity="0.2"/>
<path d="M24.3373 29.3575C23.8437 29.3575 23.4118 29.0226 23.3295 28.5497C23.2267 28.0177 23.6072 27.5054 24.1625 27.4069L32.194 26.0376C32.7596 25.9391 33.284 26.3036 33.3869 26.8356C33.4897 27.3675 33.1092 27.8798 32.5539 27.9783L24.5224 29.3477C24.4607 29.3477 24.399 29.3575 24.3373 29.3575Z" fill="white" fill-opacity="0.2"/>
<path d="M20.6662 6.86682C20.3165 6.86682 19.9669 6.68949 19.7818 6.3841L17.4166 2.53221C17.1286 2.05935 17.2932 1.45841 17.7868 1.18257C18.2804 0.906736 18.9077 1.06436 19.1956 1.53722L21.5609 5.38911C21.8488 5.86198 21.6843 6.46291 21.1906 6.73875C21.0261 6.81756 20.841 6.86682 20.6662 6.86682Z" fill="white" fill-opacity="0.2"/>
<path d="M152.697 90.0814C152.409 90.0814 152.131 89.973 151.925 89.7464L147.678 85.1163C147.308 84.7124 147.349 84.0819 147.771 83.7273C148.192 83.3726 148.851 83.412 149.221 83.8159L153.468 88.4461C153.838 88.85 153.797 89.4805 153.375 89.8351C153.18 90.0026 152.933 90.0814 152.697 90.0814Z" fill="white" fill-opacity="0.2"/>
<path d="M148.943 68.8911C148.593 68.8911 148.254 68.7236 148.069 68.4182L146.3 65.6401C146.002 65.1771 146.156 64.5663 146.64 64.2905C147.123 64.0048 147.76 64.1526 148.048 64.6156L149.817 67.3937C150.115 67.8567 149.961 68.4675 149.478 68.7433C149.313 68.8418 149.128 68.8911 148.943 68.8911Z" fill="white" fill-opacity="0.2"/>
<path d="M231.51 30.717C231.468 30.717 231.417 30.717 231.376 30.7071L222.892 29.6333C222.326 29.5644 221.936 29.062 222.008 28.53C222.08 27.9882 222.604 27.6138 223.159 27.6828L231.643 28.7566C232.209 28.8255 232.6 29.3279 232.528 29.8599C232.456 30.3623 232.024 30.717 231.51 30.717Z" fill="white" fill-opacity="0.2"/>
<path d="M75.3026 23.1413C74.9118 23.1413 74.5313 22.9246 74.3668 22.5601L68.0219 8.90605C67.7956 8.41348 68.0219 7.8224 68.5463 7.60567C69.0708 7.38894 69.6775 7.60567 69.9038 8.10809L76.2487 21.7522C76.4749 22.2448 76.2487 22.8359 75.7242 23.0526C75.5906 23.1117 75.4466 23.1413 75.3026 23.1413Z" fill="white" fill-opacity="0.2"/>
<path d="M78.2643 91.234C77.8941 91.234 77.5342 91.0369 77.3491 90.702L73.0917 82.9096C72.8243 82.4268 73.0197 81.8358 73.5236 81.5796C74.0275 81.3235 74.6445 81.5107 74.9119 81.9934L79.1795 89.7858C79.4469 90.2685 79.2515 90.8596 78.7476 91.1158C78.5831 91.1946 78.4288 91.234 78.2643 91.234Z" fill="white" fill-opacity="0.2"/>
<path d="M178.272 38.667C177.943 38.667 177.624 38.5193 177.428 38.2434C177.099 37.8001 177.212 37.1795 177.675 36.8741L188.73 29.4462C189.193 29.1309 189.841 29.2393 190.159 29.6826C190.489 30.1259 190.375 30.7465 189.913 31.0519L178.858 38.4799C178.673 38.6079 178.467 38.667 178.272 38.667Z" fill="white" fill-opacity="0.2"/>
<path d="M53.0696 99.1939C52.8331 99.1939 52.5863 99.1151 52.3909 98.9476C51.959 98.593 51.9179 97.9625 52.2984 97.5586L54.0568 95.6277C54.427 95.2139 55.0749 95.1745 55.5068 95.539C55.9387 95.8937 55.9799 96.5242 55.5994 96.9281L53.8409 98.859C53.6455 99.0855 53.3576 99.1939 53.0696 99.1939Z" fill="white" fill-opacity="0.2"/>
<path d="M101.628 51.2867C101.454 51.2867 101.279 51.2473 101.114 51.1586C100.621 50.8926 100.456 50.2818 100.734 49.809L104.59 43.3662C104.868 42.8933 105.495 42.7258 105.999 43.0017C106.493 43.2676 106.657 43.8784 106.379 44.3513L102.523 50.7941C102.328 51.1093 101.988 51.2867 101.628 51.2867Z" fill="white" fill-opacity="0.2"/>
<path d="M262.432 6.12796C261.949 6.12796 261.517 5.80286 261.424 5.33C261.311 4.79802 261.681 4.2759 262.237 4.17739L275.379 1.71454C275.934 1.60618 276.479 1.96083 276.582 2.4928C276.695 3.02478 276.325 3.5469 275.77 3.64541L262.628 6.10826C262.566 6.11811 262.494 6.12796 262.432 6.12796Z" fill="white" fill-opacity="0.2"/>
<path d="M72.1455 111.922C72.0838 111.922 72.0118 111.912 71.9398 111.902L68.4434 111.242C67.8881 111.134 67.5282 110.622 67.631 110.08C67.7441 109.548 68.2789 109.193 68.8445 109.301L72.3409 109.961C72.8962 110.07 73.2561 110.582 73.1533 111.124C73.0504 111.597 72.6185 111.922 72.1455 111.922Z" fill="white" fill-opacity="0.2"/>
<path d="M61.0085 64.0639C60.6588 64.0639 60.3195 63.8964 60.1241 63.5812L56.2883 57.4339C56.0004 56.9709 56.1547 56.3601 56.6483 56.0843C57.1316 55.8084 57.7692 55.9562 58.0571 56.4291L61.8929 62.5763C62.1808 63.0393 62.0266 63.6501 61.5329 63.926C61.3684 64.0245 61.1833 64.0639 61.0085 64.0639Z" fill="white" fill-opacity="0.2"/>
<path d="M5.8064 41.3368C5.72413 41.3368 5.63158 41.3269 5.54931 41.3072L1.23023 40.2334C0.685198 40.0955 0.345841 39.5635 0.48981 39.0315C0.63378 38.5094 1.18909 38.1942 1.7444 38.3223L6.06349 39.3961C6.60852 39.534 6.94787 40.0659 6.8039 40.5979C6.6805 41.0412 6.26916 41.3368 5.8064 41.3368Z" fill="white" fill-opacity="0.2"/>
<path d="M220.65 88.0323C220.187 88.0323 219.766 87.7368 219.653 87.2836L216.053 73.4621C215.92 72.9302 216.249 72.3982 216.804 72.2701C217.349 72.142 217.915 72.4573 218.048 72.9893L221.648 86.8107C221.781 87.3427 221.452 87.8747 220.897 88.0028C220.815 88.0225 220.732 88.0323 220.65 88.0323Z" fill="white" fill-opacity="0.2"/>
<path d="M571.968 115.409C571.567 115.409 571.197 115.183 571.022 114.818L569.418 111.282C569.192 110.779 569.428 110.198 569.953 109.981C570.477 109.764 571.084 109.991 571.31 110.493L572.914 114.03C573.14 114.532 572.904 115.114 572.379 115.33C572.235 115.39 572.102 115.409 571.968 115.409Z" fill="white" fill-opacity="0.2"/>
<path d="M498.904 5.12313C498.718 5.12313 498.533 5.07387 498.359 4.97536L493.124 1.87218C492.641 1.58649 492.497 0.975703 492.795 0.512688C493.093 0.0496737 493.731 -0.0882455 494.214 0.197444L499.449 3.30063C499.932 3.58632 500.076 4.1971 499.778 4.66012C499.582 4.95566 499.253 5.12313 498.904 5.12313Z" fill="white" fill-opacity="0.2"/>
<path d="M329.544 5.14282C329.009 5.14282 328.557 4.74877 328.516 4.22665C328.474 3.68482 328.906 3.21195 329.472 3.17255L344.908 2.11845C345.483 2.0889 345.967 2.4928 346.008 3.03463C346.049 3.57645 345.617 4.04932 345.052 4.08873L329.626 5.14282C329.595 5.14282 329.575 5.14282 329.544 5.14282Z" fill="white" fill-opacity="0.2"/>
<path d="M548.882 106.011C548.553 106.011 548.223 105.863 548.028 105.578L545.488 101.962C545.169 101.509 545.293 100.898 545.766 100.593C546.239 100.287 546.876 100.406 547.195 100.859L549.735 104.474C550.054 104.927 549.93 105.538 549.457 105.844C549.272 105.962 549.077 106.011 548.882 106.011Z" fill="white" fill-opacity="0.2"/>
<path d="M403.555 115.705C403.277 115.705 403.01 115.596 402.804 115.399C402.413 115.005 402.434 114.385 402.845 114.01L404.799 112.247C405.21 111.873 405.858 111.892 406.249 112.286C406.64 112.68 406.619 113.301 406.208 113.675L404.254 115.439C404.058 115.616 403.801 115.705 403.555 115.705Z" fill="white" fill-opacity="0.2"/>
<path d="M547.113 59.6111C547.031 59.6111 546.948 59.6012 546.866 59.5815C546.311 59.4535 545.971 58.9215 546.105 58.3895L546.917 55.1484C547.051 54.6164 547.606 54.2913 548.162 54.4194C548.717 54.5475 549.056 55.0794 548.923 55.6114L548.11 58.8525C547.997 59.3057 547.576 59.6111 547.113 59.6111Z" fill="white" fill-opacity="0.2"/>
<path d="M421.962 6.59097C421.592 6.59097 421.232 6.39394 421.047 6.059C420.79 5.57628 420.985 4.9852 421.489 4.72906L428.379 1.31063C428.883 1.06435 429.5 1.25153 429.767 1.73424C430.024 2.21696 429.829 2.80804 429.325 3.06418L422.435 6.48261C422.281 6.55157 422.116 6.59097 421.962 6.59097Z" fill="white" fill-opacity="0.2"/>
<path d="M486.203 101.608C486.07 101.608 485.936 101.588 485.813 101.529L479.992 99.2038C479.468 98.9969 479.221 98.4157 479.437 97.9132C479.653 97.4108 480.26 97.1744 480.784 97.3813L486.605 99.6963C487.129 99.9032 487.376 100.484 487.16 100.987C486.985 101.381 486.605 101.608 486.203 101.608Z" fill="white" fill-opacity="0.2"/>
<path d="M406.012 14.6593C405.642 14.6593 405.282 14.4622 405.097 14.1273L399.122 3.19225C398.855 2.70954 399.05 2.11845 399.554 1.86232C400.058 1.61603 400.675 1.79336 400.943 2.27608L406.917 13.2111C407.185 13.6938 406.989 14.2849 406.485 14.541C406.331 14.6199 406.177 14.6593 406.012 14.6593Z" fill="white" fill-opacity="0.2"/>
<path d="M515.162 6.79785C514.997 6.79785 514.822 6.75845 514.668 6.67964C514.175 6.41365 513.989 5.81272 514.267 5.33985L516.242 1.91157C516.519 1.43871 517.136 1.26138 517.64 1.52737C518.134 1.79336 518.319 2.39429 518.041 2.86716L516.067 6.29543C515.882 6.61068 515.522 6.79785 515.162 6.79785Z" fill="white" fill-opacity="0.2"/>
<path d="M535.215 12.2161C535.153 12.2161 535.102 12.2161 535.04 12.2063C534.485 12.1176 534.104 11.6053 534.197 11.0635L535.585 3.35972C535.677 2.82775 536.212 2.46325 536.778 2.55191C537.333 2.64057 537.714 3.15284 537.621 3.69467L536.233 11.3984C536.14 11.8812 535.698 12.2161 535.215 12.2161Z" fill="white" fill-opacity="0.2"/>
<path d="M545.221 34.9334C544.737 34.9334 544.295 34.5984 544.213 34.1256L543.359 29.6038C543.257 29.0718 543.627 28.5595 544.192 28.461C544.748 28.3625 545.282 28.7172 545.385 29.259L546.239 33.7808C546.342 34.3127 545.971 34.825 545.406 34.9235C545.344 34.9235 545.282 34.9334 545.221 34.9334Z" fill="white" fill-opacity="0.2"/>
<path d="M561.87 72.5263C561.386 72.5263 560.955 72.2012 560.862 71.7283C560.749 71.1963 561.119 70.6742 561.674 70.5757L570.066 69.0093C570.621 68.9009 571.166 69.2556 571.269 69.7876C571.382 70.3195 571.012 70.8417 570.457 70.9402L562.065 72.5065C562.003 72.5262 561.931 72.5263 561.87 72.5263Z" fill="white" fill-opacity="0.2"/>
<path d="M458.613 98.6619C458.284 98.6619 457.965 98.5142 457.769 98.2383C457.44 97.795 457.564 97.1744 458.026 96.869L460.608 95.145C461.07 94.8297 461.718 94.948 462.037 95.3913C462.366 95.8346 462.243 96.4552 461.78 96.7606L459.199 98.4846C459.024 98.6028 458.818 98.6619 458.613 98.6619Z" fill="white" fill-opacity="0.2"/>
<path d="M437.387 25.811C437.028 25.811 436.678 25.6337 436.493 25.3086L434.909 22.5994C434.631 22.1266 434.806 21.5256 435.3 21.2597C435.793 20.9937 436.421 21.1611 436.698 21.634L438.282 24.3431C438.56 24.816 438.385 25.4169 437.891 25.6829C437.737 25.7716 437.562 25.811 437.387 25.811Z" fill="white" fill-opacity="0.2"/>
<path d="M386.052 104.317C385.867 104.317 385.682 104.267 385.507 104.169C385.024 103.883 384.88 103.272 385.178 102.809L389.631 95.9232C389.929 95.4602 390.567 95.3223 391.05 95.608C391.533 95.8937 391.677 96.5045 391.379 96.9675L386.926 103.854C386.731 104.149 386.391 104.317 386.052 104.317Z" fill="white" fill-opacity="0.2"/>
<path d="M297.994 110.71C297.891 110.71 297.788 110.7 297.696 110.671L294.724 109.804C294.179 109.646 293.87 109.095 294.045 108.572C294.21 108.05 294.786 107.755 295.331 107.922L298.303 108.789C298.848 108.947 299.156 109.498 298.981 110.021C298.837 110.434 298.436 110.71 297.994 110.71Z" fill="white" fill-opacity="0.2"/>
<path d="M525.127 104.494C524.777 104.494 524.427 104.317 524.232 104.001C523.944 103.529 524.108 102.928 524.602 102.652L526.967 101.342C527.461 101.066 528.088 101.233 528.376 101.696C528.664 102.169 528.5 102.77 528.006 103.046L525.641 104.356C525.476 104.445 525.301 104.494 525.127 104.494Z" fill="white" fill-opacity="0.2"/>
<path d="M499.5 25.9095C499.15 25.9095 498.811 25.742 498.616 25.4366L495.222 20.0775C494.924 19.6145 495.088 19.0037 495.572 18.7279C496.055 18.4422 496.693 18.5998 496.981 19.0628L500.374 24.422C500.672 24.885 500.508 25.4958 500.025 25.7716C499.86 25.8603 499.675 25.9095 499.5 25.9095Z" fill="white" fill-opacity="0.2"/>
<path d="M321.708 74.4669C321.584 74.4669 321.451 74.4472 321.327 74.398L311.373 70.5954C310.848 70.3983 310.591 69.8171 310.797 69.3147C311.003 68.8122 311.609 68.5561 312.134 68.763L322.088 72.5656C322.613 72.7627 322.87 73.3439 322.664 73.8463C322.5 74.2305 322.119 74.4669 321.708 74.4669Z" fill="white" fill-opacity="0.2"/>
<path d="M296.256 91.165C296.205 91.165 296.153 91.165 296.102 91.1552C295.536 91.0764 295.156 90.574 295.238 90.042L295.804 86.3477C295.886 85.8059 296.41 85.4315 296.966 85.5202C297.531 85.599 297.912 86.1014 297.829 86.6334L297.264 90.3277C297.192 90.8104 296.76 91.165 296.256 91.165Z" fill="white" fill-opacity="0.2"/>
<path d="M569.294 53.119C569.253 53.119 569.222 53.119 569.181 53.1092L565.849 52.7742C565.284 52.7151 564.873 52.2324 564.934 51.6906C564.996 51.1487 565.49 50.7547 566.065 50.8138L569.397 51.1487C569.963 51.2078 570.374 51.6906 570.313 52.2324C570.261 52.7447 569.819 53.119 569.294 53.119Z" fill="white" fill-opacity="0.2"/>
<path d="M476.444 7.08355C476.064 7.08355 475.704 6.88652 475.519 6.53187L473.513 2.66028C473.256 2.17756 473.472 1.58648 473.976 1.3402C474.49 1.09391 475.097 1.30079 475.354 1.78351L477.36 5.6551C477.617 6.13781 477.401 6.7289 476.897 6.97518C476.753 7.05399 476.599 7.08355 476.444 7.08355Z" fill="white" fill-opacity="0.2"/>
<path d="M329.647 53.0599C329.544 53.0599 329.441 53.0501 329.349 53.0205L317.954 49.6907C317.409 49.5331 317.101 48.9814 317.276 48.4593C317.44 47.9372 318.016 47.6417 318.561 47.8091L329.955 51.1389C330.5 51.2965 330.809 51.8482 330.634 52.3703C330.5 52.7841 330.089 53.0599 329.647 53.0599Z" fill="white" fill-opacity="0.2"/>
<path d="M567.32 96.9576C567.207 96.9576 567.104 96.9379 566.991 96.9084C566.456 96.731 566.158 96.1794 566.343 95.6572L568.688 88.9583C568.873 88.446 569.449 88.1702 569.994 88.3377C570.528 88.515 570.827 89.0667 570.642 89.5888L568.297 96.2877C568.153 96.6916 567.752 96.9576 567.32 96.9576Z" fill="white" fill-opacity="0.2"/>
<path d="M490.44 82.0328C489.957 82.0328 489.525 81.6979 489.432 81.225L487.91 73.403C487.808 72.871 488.178 72.3587 488.733 72.2504C489.288 72.1519 489.823 72.5065 489.936 73.0385L491.458 80.8605C491.561 81.3925 491.191 81.9047 490.636 82.0131C490.574 82.0229 490.512 82.0328 490.44 82.0328Z" fill="white" fill-opacity="0.2"/>
<path d="M454.87 53.9071C454.427 53.9071 454.016 53.6313 453.882 53.1978L449.954 40.194C449.8 39.6719 450.108 39.1301 450.653 38.9724C451.198 38.8148 451.764 39.1202 451.928 39.6423L455.857 52.6461C456.011 53.1683 455.702 53.7101 455.157 53.8677C455.065 53.8973 454.962 53.9071 454.87 53.9071Z" fill="white" fill-opacity="0.2"/>
<path d="M294.981 69.8368C294.436 69.8368 293.973 69.423 293.953 68.8911L293.541 59.2761C293.521 58.7343 293.963 58.2713 294.528 58.2516C295.084 58.2319 295.577 58.6555 295.598 59.1973L296.009 68.8123C296.03 69.3541 295.588 69.8171 295.022 69.8368C295.012 69.8368 295.002 69.8368 294.981 69.8368Z" fill="white" fill-opacity="0.2"/>
<path d="M505.804 113.153C505.3 113.153 504.858 112.799 504.786 112.296L503.85 105.735C503.778 105.193 504.169 104.701 504.734 104.622C505.29 104.543 505.814 104.927 505.896 105.469L506.832 112.03C506.904 112.572 506.513 113.065 505.948 113.143C505.896 113.153 505.845 113.153 505.804 113.153Z" fill="white" fill-opacity="0.2"/>
<path d="M347.88 81.4614C347.736 81.4614 347.592 81.4319 347.458 81.3728L336.917 76.851C336.403 76.6244 336.167 76.0432 336.403 75.5506C336.64 75.058 337.246 74.8314 337.761 75.058L348.301 79.5798C348.815 79.8064 349.052 80.3876 348.815 80.8802C348.651 81.2447 348.27 81.4614 347.88 81.4614Z" fill="white" fill-opacity="0.2"/>
<path d="M414.291 32.4607C413.869 32.4607 413.478 32.2144 413.324 31.8105C413.129 31.2982 413.406 30.7367 413.931 30.5495L418.527 28.9339C419.062 28.7467 419.648 29.0127 419.844 29.5151C420.039 30.0274 419.761 30.5889 419.237 30.7761L414.64 32.3917C414.527 32.441 414.404 32.4607 414.291 32.4607Z" fill="white" fill-opacity="0.2"/>
<path d="M413.931 96.4257C413.365 96.4257 412.902 95.9922 412.902 95.4504C412.902 94.9086 413.355 94.4652 413.92 94.4554L425.366 94.3667C425.973 94.3372 426.394 94.8002 426.405 95.342C426.405 95.8838 425.952 96.3272 425.387 96.337L413.931 96.4257C413.941 96.4257 413.941 96.4257 413.931 96.4257Z" fill="white" fill-opacity="0.2"/>
<path d="M478.851 59.9066C478.522 59.9066 478.193 59.7588 477.997 59.4732L475.982 56.6261C475.663 56.1729 475.786 55.5622 476.259 55.2568C476.732 54.9514 477.37 55.0696 477.689 55.5228L479.704 58.3698C480.023 58.823 479.9 59.4337 479.427 59.7391C479.242 59.8574 479.046 59.9066 478.851 59.9066Z" fill="white" fill-opacity="0.2"/>
<path d="M400.418 81.0477C400.058 81.0477 399.709 80.8703 399.523 80.5452L393.724 70.6939C393.446 70.221 393.621 69.6201 394.114 69.3541C394.608 69.0881 395.235 69.2556 395.513 69.7284L401.313 79.5798C401.59 80.0527 401.416 80.6536 400.922 80.9196C400.768 81.0083 400.593 81.0477 400.418 81.0477Z" fill="white" fill-opacity="0.2"/>
<path d="M468.289 79.501C468.053 79.501 467.827 79.4222 467.631 79.2744L461.451 74.3389C461.019 73.9941 460.957 73.3734 461.317 72.9498C461.677 72.5262 462.325 72.477 462.767 72.8218L468.948 77.7573C469.379 78.1021 469.441 78.7227 469.081 79.1463C468.876 79.3828 468.588 79.501 468.289 79.501Z" fill="white" fill-opacity="0.2"/>
<path d="M346.316 39.268C345.792 39.268 345.339 38.8838 345.298 38.3715L343.869 23.5551C343.817 23.0132 344.229 22.5305 344.794 22.4813C345.36 22.4221 345.864 22.8261 345.915 23.3679L347.345 38.1843C347.396 38.7262 346.985 39.2089 346.419 39.2581C346.378 39.268 346.347 39.268 346.316 39.268Z" fill="white" fill-opacity="0.2"/>
<path d="M421.88 75.4521C421.633 75.4521 421.386 75.3733 421.191 75.196L419.072 73.3735C418.651 73.009 418.61 72.3883 418.99 71.9844C419.371 71.5805 420.019 71.5411 420.44 71.9056L422.559 73.7281C422.98 74.0926 423.021 74.7132 422.641 75.1172C422.445 75.3437 422.158 75.4521 421.88 75.4521Z" fill="white" fill-opacity="0.2"/>
<path d="M566.487 36.4308C566.466 36.4308 566.446 36.4308 566.425 36.4308C565.86 36.4012 565.428 35.9284 565.459 35.3866L566.281 21.9788C566.312 21.437 566.806 21.0134 567.371 21.0528C567.937 21.0824 568.369 21.5552 568.338 22.0971L567.515 35.5048C567.474 36.0269 567.022 36.4308 566.487 36.4308Z" fill="white" fill-opacity="0.2"/>
<path d="M456.001 20.9149C455.507 20.9149 455.065 20.5701 454.983 20.0873C454.89 19.5554 455.271 19.0431 455.836 18.9544L464.649 17.5752C465.204 17.4866 465.739 17.8511 465.832 18.3929C465.924 18.9347 465.544 19.4372 464.978 19.5258L456.165 20.905C456.114 20.905 456.062 20.9149 456.001 20.9149Z" fill="white" fill-opacity="0.2"/>
<path d="M441.974 115.468C441.686 115.468 441.398 115.35 441.203 115.133L435.598 108.957C435.228 108.543 435.269 107.922 435.701 107.568C436.133 107.213 436.781 107.252 437.151 107.666L442.755 113.843C443.126 114.257 443.085 114.877 442.653 115.232C442.447 115.39 442.21 115.468 441.974 115.468Z" fill="white" fill-opacity="0.2"/>
<path d="M339.354 120C339.077 120 338.809 119.892 338.604 119.685L330.747 111.656C330.356 111.262 330.377 110.631 330.799 110.267C331.21 109.892 331.868 109.912 332.249 110.316L340.105 118.345C340.496 118.739 340.475 119.37 340.054 119.734C339.858 119.911 339.612 120 339.354 120Z" fill="white" fill-opacity="0.2"/>
<path d="M547.195 84.6139C547.051 84.6139 546.897 84.5843 546.753 84.5154L532.284 77.9149C531.77 77.6785 531.554 77.0973 531.801 76.6047C532.048 76.1121 532.665 75.9052 533.168 76.1417L547.637 82.7421C548.152 82.9785 548.367 83.5598 548.121 84.0523C547.946 84.407 547.576 84.6139 547.195 84.6139Z" fill="white" fill-opacity="0.2"/>
<path d="M526.433 57.4241C526.402 57.4241 526.371 57.4241 526.34 57.4241C525.775 57.3748 525.353 56.8921 525.415 56.3503L526.052 49.6908C526.104 49.1489 526.607 48.745 527.173 48.8041C527.739 48.8534 528.16 49.3361 528.099 49.8779L527.461 56.5375C527.41 57.0399 526.957 57.4241 526.433 57.4241Z" fill="white" fill-opacity="0.2"/>
<path d="M505.002 55.3947C504.704 55.3947 504.416 55.2765 504.21 55.04L496.045 45.7305C495.675 45.3167 495.736 44.6961 496.168 44.3414C496.6 43.9868 497.248 44.0459 497.618 44.4597L505.783 53.7692C506.154 54.183 506.092 54.8036 505.66 55.1583C505.475 55.3159 505.238 55.3947 505.002 55.3947Z" fill="white" fill-opacity="0.2"/>
<path d="M314.448 99.4303C314.088 99.4303 313.738 99.2432 313.543 98.9279C313.265 98.4551 313.45 97.8541 313.944 97.5881L322.376 93.1058C322.87 92.8398 323.497 93.0171 323.775 93.49C324.053 93.9628 323.867 94.5638 323.374 94.8298L314.941 99.3121C314.787 99.3909 314.612 99.4303 314.448 99.4303Z" fill="white" fill-opacity="0.2"/>
<path d="M380.684 7.57613C380.19 7.57613 379.758 7.23133 379.666 6.74861L378.74 1.42887C378.648 0.896894 379.028 0.384622 379.584 0.29596C380.139 0.207298 380.674 0.571798 380.766 1.10377L381.692 6.42351C381.784 6.95549 381.404 7.46776 380.849 7.55642C380.797 7.56627 380.735 7.57613 380.684 7.57613Z" fill="white" fill-opacity="0.2"/>
<path d="M416.193 55.7789C415.782 55.7789 415.401 55.5425 415.237 55.1583C415.031 54.6558 415.288 54.0845 415.813 53.8776L429.479 48.6662C430.004 48.4692 430.6 48.7155 430.816 49.2179C431.022 49.7203 430.765 50.2917 430.24 50.4986L416.574 55.7099C416.44 55.7493 416.316 55.7789 416.193 55.7789Z" fill="white" fill-opacity="0.2"/>
<path d="M365.361 45.7699C364.919 45.7699 364.508 45.494 364.374 45.0704C364.21 44.5483 364.518 43.9966 365.063 43.839L376.797 40.4403C377.342 40.2827 377.918 40.5782 378.082 41.1003C378.247 41.6225 377.938 42.1741 377.393 42.3317L365.66 45.7305C365.557 45.76 365.464 45.7699 365.361 45.7699Z" fill="white" fill-opacity="0.2"/>
<path d="M296.811 20.6095C296.318 20.6095 295.886 20.2745 295.804 19.7918L293.017 4.72906C292.914 4.19709 293.294 3.68482 293.85 3.5863C294.415 3.48779 294.94 3.85229 295.043 4.38426L297.829 19.4569C297.932 19.9888 297.552 20.5011 296.997 20.5996C296.935 20.6095 296.873 20.6095 296.811 20.6095Z" fill="white" fill-opacity="0.2"/>
<path d="M373.434 66.3987C373.054 66.3987 372.683 66.1918 372.509 65.847C372.262 65.3544 372.478 64.7634 372.982 64.5269L377.691 62.3399C378.206 62.1035 378.823 62.3104 379.069 62.7931C379.316 63.2856 379.1 63.8767 378.596 64.1132L373.887 66.3002C373.732 66.3593 373.578 66.3987 373.434 66.3987Z" fill="white" fill-opacity="0.2"/>
<path d="M391.523 28.2147C391.286 28.2147 391.04 28.1359 390.844 27.9685L388.818 26.2642C388.386 25.9095 388.345 25.279 388.726 24.8751C389.096 24.4712 389.754 24.422 390.176 24.7865L392.202 26.4908C392.633 26.8454 392.675 27.4759 392.294 27.8798C392.099 28.0965 391.811 28.2147 391.523 28.2147Z" fill="white" fill-opacity="0.2"/>
<path d="M448.905 4.02961C448.555 4.02961 448.216 3.86214 448.021 3.5469C447.733 3.08388 447.887 2.4731 448.381 2.19726L452 0.138321C452.484 -0.137518 453.121 0.0102531 453.409 0.483119C453.697 0.946134 453.543 1.55692 453.049 1.83276L449.429 3.89169C449.265 3.99021 449.09 4.02961 448.905 4.02961Z" fill="white" fill-opacity="0.2"/>
<path d="M317.337 29.3575C316.844 29.3575 316.412 29.0226 316.33 28.5497C316.227 28.0177 316.607 27.5054 317.163 27.4069L325.194 26.0376C325.76 25.9391 326.284 26.3036 326.387 26.8356C326.49 27.3675 326.109 27.8798 325.554 27.9783L317.522 29.3477C317.461 29.3477 317.399 29.3575 317.337 29.3575Z" fill="white" fill-opacity="0.2"/>
<path d="M313.666 6.86682C313.317 6.86682 312.967 6.68949 312.782 6.3841L310.417 2.53221C310.129 2.05935 310.293 1.45841 310.787 1.18257C311.28 0.906736 311.908 1.06436 312.196 1.53722L314.561 5.38911C314.849 5.86198 314.684 6.46291 314.191 6.73875C314.026 6.81756 313.841 6.86682 313.666 6.86682Z" fill="white" fill-opacity="0.2"/>
<path d="M445.697 90.0814C445.409 90.0814 445.131 89.973 444.925 89.7464L440.678 85.1163C440.308 84.7124 440.349 84.0819 440.771 83.7273C441.192 83.3726 441.851 83.412 442.221 83.8159L446.468 88.4461C446.838 88.85 446.797 89.4805 446.375 89.8351C446.18 90.0026 445.933 90.0814 445.697 90.0814Z" fill="white" fill-opacity="0.2"/>
<path d="M441.943 68.8911C441.593 68.8911 441.254 68.7236 441.069 68.4182L439.3 65.6401C439.002 65.1771 439.156 64.5663 439.64 64.2905C440.123 64.0048 440.76 64.1526 441.048 64.6156L442.817 67.3937C443.115 67.8567 442.961 68.4675 442.478 68.7433C442.313 68.8418 442.128 68.8911 441.943 68.8911Z" fill="white" fill-opacity="0.2"/>
<path d="M524.51 30.717C524.468 30.717 524.417 30.717 524.376 30.7071L515.892 29.6333C515.326 29.5644 514.936 29.062 515.008 28.53C515.08 27.9882 515.604 27.6138 516.159 27.6828L524.643 28.7566C525.209 28.8255 525.6 29.3279 525.528 29.8599C525.456 30.3623 525.024 30.717 524.51 30.717Z" fill="white" fill-opacity="0.2"/>
<path d="M368.303 23.1413C367.912 23.1413 367.531 22.9246 367.367 22.5601L361.022 8.90605C360.796 8.41348 361.022 7.8224 361.546 7.60567C362.071 7.38894 362.678 7.60567 362.904 8.10809L369.249 21.7522C369.475 22.2448 369.249 22.8359 368.724 23.0526C368.591 23.1117 368.447 23.1413 368.303 23.1413Z" fill="white" fill-opacity="0.2"/>
<path d="M371.264 91.234C370.894 91.234 370.534 91.0369 370.349 90.702L366.092 82.9096C365.824 82.4268 366.02 81.8358 366.524 81.5796C367.027 81.3235 367.644 81.5107 367.912 81.9934L372.18 89.7858C372.447 90.2685 372.252 90.8596 371.748 91.1158C371.583 91.1946 371.429 91.234 371.264 91.234Z" fill="white" fill-opacity="0.2"/>
<path d="M471.272 38.667C470.943 38.667 470.624 38.5193 470.428 38.2434C470.099 37.8001 470.212 37.1795 470.675 36.8741L481.73 29.4462C482.193 29.1309 482.841 29.2393 483.159 29.6826C483.489 30.1259 483.375 30.7465 482.913 31.0519L471.858 38.4799C471.673 38.6079 471.467 38.667 471.272 38.667Z" fill="white" fill-opacity="0.2"/>
<path d="M346.07 99.1939C345.833 99.1939 345.586 99.1151 345.391 98.9476C344.959 98.593 344.918 97.9625 345.298 97.5586L347.057 95.6277C347.427 95.2139 348.075 95.1745 348.507 95.539C348.939 95.8937 348.98 96.5242 348.599 96.9281L346.841 98.859C346.646 99.0855 346.358 99.1939 346.07 99.1939Z" fill="white" fill-opacity="0.2"/>
<path d="M394.628 51.2867C394.454 51.2867 394.279 51.2473 394.114 51.1586C393.621 50.8926 393.456 50.2818 393.734 49.809L397.59 43.3662C397.868 42.8933 398.495 42.7258 398.999 43.0017C399.493 43.2676 399.657 43.8784 399.379 44.3513L395.523 50.7941C395.328 51.1093 394.988 51.2867 394.628 51.2867Z" fill="white" fill-opacity="0.2"/>
<path d="M555.432 6.12796C554.949 6.12796 554.517 5.80286 554.424 5.33C554.311 4.79802 554.681 4.2759 555.237 4.17739L568.379 1.71454C568.934 1.60618 569.48 1.96083 569.582 2.4928C569.695 3.02478 569.325 3.5469 568.77 3.64541L555.628 6.10826C555.566 6.11811 555.494 6.12796 555.432 6.12796Z" fill="white" fill-opacity="0.2"/>
<path d="M365.146 111.922C365.084 111.922 365.012 111.912 364.94 111.902L361.443 111.242C360.888 111.134 360.528 110.622 360.631 110.08C360.744 109.548 361.279 109.193 361.845 109.301L365.341 109.961C365.896 110.07 366.256 110.582 366.153 111.124C366.05 111.597 365.619 111.922 365.146 111.922Z" fill="white" fill-opacity="0.2"/>
<path d="M354.008 64.0639C353.659 64.0639 353.319 63.8964 353.124 63.5812L349.288 57.4339C349 56.9709 349.155 56.3601 349.648 56.0843C350.132 55.8084 350.769 55.9562 351.057 56.4291L354.893 62.5763C355.181 63.0393 355.027 63.6501 354.533 63.926C354.368 64.0245 354.183 64.0639 354.008 64.0639Z" fill="white" fill-opacity="0.2"/>
<path d="M298.806 41.3368C298.724 41.3368 298.632 41.3269 298.549 41.3072L294.23 40.2334C293.685 40.0955 293.346 39.5635 293.49 39.0315C293.634 38.5094 294.189 38.1942 294.744 38.3223L299.063 39.3961C299.609 39.534 299.948 40.0659 299.804 40.5979C299.681 41.0412 299.269 41.3368 298.806 41.3368Z" fill="white" fill-opacity="0.2"/>
<path d="M513.65 88.0323C513.187 88.0323 512.766 87.7368 512.653 87.2836L509.053 73.4621C508.92 72.9302 509.249 72.3982 509.804 72.2701C510.349 72.142 510.915 72.4573 511.048 72.9893L514.648 86.8107C514.781 87.3427 514.452 87.8747 513.897 88.0028C513.815 88.0225 513.732 88.0323 513.65 88.0323Z" fill="white" fill-opacity="0.2"/>
<path d="M792.904 5.12313C792.718 5.12313 792.533 5.07387 792.359 4.97536L787.124 1.87218C786.641 1.58649 786.497 0.975703 786.795 0.512688C787.093 0.0496737 787.731 -0.0882455 788.214 0.197444L793.449 3.30063C793.932 3.58632 794.076 4.1971 793.778 4.66012C793.582 4.95566 793.253 5.12313 792.904 5.12313Z" fill="white" fill-opacity="0.2"/>
<path d="M623.544 5.14282C623.009 5.14282 622.557 4.74877 622.516 4.22665C622.474 3.68482 622.906 3.21195 623.472 3.17255L638.908 2.11845C639.483 2.0889 639.967 2.4928 640.008 3.03463C640.049 3.57645 639.617 4.04932 639.052 4.08873L623.626 5.14282C623.595 5.14282 623.575 5.14282 623.544 5.14282Z" fill="white" fill-opacity="0.2"/>
<path d="M842.882 106.011C842.553 106.011 842.223 105.863 842.028 105.578L839.488 101.962C839.169 101.509 839.293 100.898 839.766 100.593C840.239 100.287 840.876 100.406 841.195 100.859L843.735 104.474C844.054 104.927 843.93 105.538 843.457 105.844C843.272 105.962 843.077 106.011 842.882 106.011Z" fill="white" fill-opacity="0.2"/>
<path d="M697.555 115.705C697.277 115.705 697.01 115.596 696.804 115.399C696.413 115.005 696.434 114.385 696.845 114.01L698.799 112.247C699.21 111.873 699.858 111.892 700.249 112.286C700.64 112.68 700.619 113.301 700.208 113.675L698.254 115.439C698.058 115.616 697.801 115.705 697.555 115.705Z" fill="white" fill-opacity="0.2"/>
<path d="M841.113 59.6111C841.031 59.6111 840.948 59.6012 840.866 59.5815C840.311 59.4535 839.971 58.9215 840.105 58.3895L840.917 55.1484C841.051 54.6164 841.606 54.2913 842.162 54.4194C842.717 54.5475 843.056 55.0794 842.923 55.6114L842.11 58.8525C841.997 59.3057 841.576 59.6111 841.113 59.6111Z" fill="white" fill-opacity="0.2"/>
<path d="M715.962 6.59097C715.592 6.59097 715.232 6.39394 715.047 6.059C714.79 5.57628 714.985 4.9852 715.489 4.72906L722.379 1.31063C722.883 1.06435 723.5 1.25153 723.767 1.73424C724.024 2.21696 723.829 2.80804 723.325 3.06418L716.435 6.48261C716.281 6.55157 716.116 6.59097 715.962 6.59097Z" fill="white" fill-opacity="0.2"/>
<path d="M780.203 101.608C780.07 101.608 779.936 101.588 779.813 101.529L773.992 99.2038C773.468 98.9969 773.221 98.4157 773.437 97.9132C773.653 97.4108 774.26 97.1744 774.784 97.3813L780.605 99.6963C781.129 99.9032 781.376 100.484 781.16 100.987C780.985 101.381 780.605 101.608 780.203 101.608Z" fill="white" fill-opacity="0.2"/>
<path d="M700.012 14.6593C699.642 14.6593 699.282 14.4622 699.097 14.1273L693.122 3.19225C692.855 2.70954 693.05 2.11845 693.554 1.86232C694.058 1.61603 694.675 1.79336 694.943 2.27608L700.917 13.2111C701.185 13.6938 700.989 14.2849 700.485 14.541C700.331 14.6199 700.177 14.6593 700.012 14.6593Z" fill="white" fill-opacity="0.2"/>
<path d="M809.162 6.79785C808.997 6.79785 808.822 6.75845 808.668 6.67964C808.175 6.41365 807.989 5.81272 808.267 5.33985L810.242 1.91157C810.519 1.43871 811.136 1.26138 811.64 1.52737C812.134 1.79336 812.319 2.39429 812.041 2.86716L810.067 6.29543C809.882 6.61068 809.522 6.79785 809.162 6.79785Z" fill="white" fill-opacity="0.2"/>
<path d="M829.215 12.2161C829.153 12.2161 829.102 12.2161 829.04 12.2063C828.485 12.1176 828.104 11.6053 828.197 11.0635L829.585 3.35972C829.677 2.82775 830.212 2.46325 830.778 2.55191C831.333 2.64057 831.714 3.15284 831.621 3.69467L830.233 11.3984C830.14 11.8812 829.698 12.2161 829.215 12.2161Z" fill="white" fill-opacity="0.2"/>
<path d="M839.221 34.9334C838.737 34.9334 838.295 34.5984 838.213 34.1256L837.359 29.6038C837.257 29.0718 837.627 28.5595 838.192 28.461C838.748 28.3625 839.282 28.7172 839.385 29.259L840.239 33.7808C840.342 34.3127 839.971 34.825 839.406 34.9235C839.344 34.9235 839.282 34.9334 839.221 34.9334Z" fill="white" fill-opacity="0.2"/>
<path d="M855.87 72.5263C855.386 72.5263 854.955 72.2012 854.862 71.7283C854.749 71.1963 855.119 70.6742 855.674 70.5757L864.066 69.0093C864.621 68.9009 865.166 69.2556 865.269 69.7876C865.382 70.3195 865.012 70.8417 864.457 70.9402L856.065 72.5065C856.003 72.5262 855.931 72.5263 855.87 72.5263Z" fill="white" fill-opacity="0.2"/>
<path d="M752.613 98.6619C752.284 98.6619 751.965 98.5142 751.769 98.2383C751.44 97.795 751.564 97.1744 752.026 96.869L754.608 95.145C755.07 94.8297 755.718 94.948 756.037 95.3913C756.366 95.8346 756.243 96.4552 755.78 96.7606L753.199 98.4846C753.024 98.6028 752.818 98.6619 752.613 98.6619Z" fill="white" fill-opacity="0.2"/>
<path d="M731.387 25.811C731.028 25.811 730.678 25.6337 730.493 25.3086L728.909 22.5994C728.631 22.1266 728.806 21.5256 729.3 21.2597C729.793 20.9937 730.421 21.1611 730.698 21.634L732.282 24.3431C732.56 24.816 732.385 25.4169 731.891 25.6829C731.737 25.7716 731.562 25.811 731.387 25.811Z" fill="white" fill-opacity="0.2"/>
<path d="M680.052 104.317C679.867 104.317 679.682 104.267 679.507 104.169C679.024 103.883 678.88 103.272 679.178 102.809L683.631 95.9232C683.929 95.4602 684.567 95.3223 685.05 95.608C685.533 95.8937 685.677 96.5045 685.379 96.9675L680.926 103.854C680.731 104.149 680.391 104.317 680.052 104.317Z" fill="white" fill-opacity="0.2"/>
<path d="M591.994 110.71C591.891 110.71 591.788 110.7 591.696 110.671L588.724 109.804C588.179 109.646 587.87 109.095 588.045 108.572C588.21 108.05 588.786 107.755 589.331 107.922L592.303 108.789C592.848 108.947 593.156 109.498 592.981 110.021C592.837 110.434 592.436 110.71 591.994 110.71Z" fill="white" fill-opacity="0.2"/>
<path d="M819.127 104.494C818.777 104.494 818.427 104.317 818.232 104.001C817.944 103.529 818.108 102.928 818.602 102.652L820.967 101.342C821.461 101.066 822.088 101.233 822.376 101.696C822.664 102.169 822.5 102.77 822.006 103.046L819.641 104.356C819.476 104.445 819.301 104.494 819.127 104.494Z" fill="white" fill-opacity="0.2"/>
<path d="M793.5 25.9095C793.15 25.9095 792.811 25.742 792.616 25.4366L789.222 20.0775C788.924 19.6145 789.088 19.0037 789.572 18.7279C790.055 18.4422 790.693 18.5998 790.981 19.0628L794.374 24.422C794.672 24.885 794.508 25.4958 794.025 25.7716C793.86 25.8603 793.675 25.9095 793.5 25.9095Z" fill="white" fill-opacity="0.2"/>
<path d="M615.708 74.4669C615.584 74.4669 615.451 74.4472 615.327 74.398L605.373 70.5954C604.848 70.3983 604.591 69.8171 604.797 69.3147C605.003 68.8122 605.609 68.5561 606.134 68.763L616.088 72.5656C616.613 72.7627 616.87 73.3439 616.664 73.8463C616.5 74.2305 616.119 74.4669 615.708 74.4669Z" fill="white" fill-opacity="0.2"/>
<path d="M590.256 91.165C590.205 91.165 590.153 91.165 590.102 91.1552C589.536 91.0764 589.156 90.574 589.238 90.042L589.804 86.3477C589.886 85.8059 590.41 85.4315 590.966 85.5202C591.531 85.599 591.912 86.1014 591.829 86.6334L591.264 90.3277C591.192 90.8104 590.76 91.165 590.256 91.165Z" fill="white" fill-opacity="0.2"/>
<path d="M863.294 53.119C863.253 53.119 863.222 53.119 863.181 53.1092L859.849 52.7742C859.284 52.7151 858.873 52.2324 858.934 51.6906C858.996 51.1487 859.49 50.7547 860.065 50.8138L863.397 51.1487C863.963 51.2078 864.374 51.6906 864.313 52.2324C864.261 52.7447 863.819 53.119 863.294 53.119Z" fill="white" fill-opacity="0.2"/>
<path d="M770.444 7.08355C770.064 7.08355 769.704 6.88652 769.519 6.53187L767.513 2.66028C767.256 2.17756 767.472 1.58648 767.976 1.3402C768.49 1.09391 769.097 1.30079 769.354 1.78351L771.36 5.6551C771.617 6.13781 771.401 6.7289 770.897 6.97518C770.753 7.05399 770.599 7.08355 770.444 7.08355Z" fill="white" fill-opacity="0.2"/>
<path d="M623.647 53.0599C623.544 53.0599 623.441 53.0501 623.349 53.0205L611.954 49.6907C611.409 49.5331 611.101 48.9814 611.276 48.4593C611.44 47.9372 612.016 47.6417 612.561 47.8091L623.955 51.1389C624.5 51.2965 624.809 51.8482 624.634 52.3703C624.5 52.7841 624.089 53.0599 623.647 53.0599Z" fill="white" fill-opacity="0.2"/>
<path d="M861.32 96.9576C861.207 96.9576 861.104 96.9379 860.991 96.9084C860.456 96.731 860.158 96.1794 860.343 95.6572L862.688 88.9583C862.873 88.446 863.449 88.1702 863.994 88.3377C864.528 88.515 864.827 89.0667 864.642 89.5888L862.297 96.2877C862.153 96.6916 861.752 96.9576 861.32 96.9576Z" fill="white" fill-opacity="0.2"/>
<path d="M784.44 82.0328C783.957 82.0328 783.525 81.6979 783.432 81.225L781.91 73.403C781.808 72.871 782.178 72.3587 782.733 72.2504C783.288 72.1519 783.823 72.5065 783.936 73.0385L785.458 80.8605C785.561 81.3925 785.191 81.9047 784.636 82.0131C784.574 82.0229 784.512 82.0328 784.44 82.0328Z" fill="white" fill-opacity="0.2"/>
<path d="M748.87 53.9071C748.427 53.9071 748.016 53.6313 747.882 53.1978L743.954 40.194C743.8 39.6719 744.108 39.1301 744.653 38.9724C745.198 38.8148 745.764 39.1202 745.928 39.6423L749.857 52.6461C750.011 53.1683 749.702 53.7101 749.157 53.8677C749.065 53.8973 748.962 53.9071 748.87 53.9071Z" fill="white" fill-opacity="0.2"/>
<path d="M588.981 69.8368C588.436 69.8368 587.973 69.423 587.953 68.8911L587.541 59.2761C587.521 58.7343 587.963 58.2713 588.528 58.2516C589.084 58.2319 589.577 58.6555 589.598 59.1973L590.009 68.8123C590.03 69.3541 589.588 69.8171 589.022 69.8368C589.012 69.8368 589.002 69.8368 588.981 69.8368Z" fill="white" fill-opacity="0.2"/>
<path d="M799.804 113.153C799.3 113.153 798.858 112.799 798.786 112.296L797.85 105.735C797.778 105.193 798.169 104.701 798.734 104.622C799.29 104.543 799.814 104.927 799.896 105.469L800.832 112.03C800.904 112.572 800.513 113.065 799.948 113.143C799.896 113.153 799.845 113.153 799.804 113.153Z" fill="white" fill-opacity="0.2"/>
<path d="M641.88 81.4614C641.736 81.4614 641.592 81.4319 641.458 81.3728L630.917 76.851C630.403 76.6244 630.167 76.0432 630.403 75.5506C630.64 75.058 631.246 74.8314 631.761 75.058L642.301 79.5798C642.815 79.8064 643.052 80.3876 642.815 80.8802C642.651 81.2447 642.27 81.4614 641.88 81.4614Z" fill="white" fill-opacity="0.2"/>
<path d="M708.291 32.4607C707.869 32.4607 707.478 32.2144 707.324 31.8105C707.129 31.2982 707.406 30.7367 707.931 30.5495L712.527 28.9339C713.062 28.7467 713.648 29.0127 713.844 29.5151C714.039 30.0274 713.761 30.5889 713.237 30.7761L708.64 32.3917C708.527 32.441 708.404 32.4607 708.291 32.4607Z" fill="white" fill-opacity="0.2"/>
<path d="M707.931 96.4257C707.365 96.4257 706.902 95.9922 706.902 95.4504C706.902 94.9086 707.355 94.4652 707.92 94.4554L719.366 94.3667C719.973 94.3372 720.394 94.8002 720.405 95.342C720.405 95.8838 719.952 96.3272 719.387 96.337L707.931 96.4257C707.941 96.4257 707.941 96.4257 707.931 96.4257Z" fill="white" fill-opacity="0.2"/>
<path d="M772.851 59.9066C772.522 59.9066 772.193 59.7588 771.997 59.4732L769.982 56.6261C769.663 56.1729 769.786 55.5622 770.259 55.2568C770.732 54.9514 771.37 55.0696 771.689 55.5228L773.704 58.3698C774.023 58.823 773.9 59.4337 773.427 59.7391C773.242 59.8574 773.046 59.9066 772.851 59.9066Z" fill="white" fill-opacity="0.2"/>
<path d="M694.418 81.0477C694.058 81.0477 693.709 80.8703 693.523 80.5452L687.724 70.6939C687.446 70.221 687.621 69.6201 688.114 69.3541C688.608 69.0881 689.235 69.2556 689.513 69.7284L695.313 79.5798C695.59 80.0527 695.416 80.6536 694.922 80.9196C694.768 81.0083 694.593 81.0477 694.418 81.0477Z" fill="white" fill-opacity="0.2"/>
<path d="M762.289 79.501C762.053 79.501 761.827 79.4222 761.631 79.2744L755.451 74.3389C755.019 73.9941 754.957 73.3734 755.317 72.9498C755.677 72.5262 756.325 72.477 756.767 72.8218L762.948 77.7573C763.379 78.1021 763.441 78.7227 763.081 79.1463C762.876 79.3828 762.588 79.501 762.289 79.501Z" fill="white" fill-opacity="0.2"/>
<path d="M640.316 39.268C639.792 39.268 639.339 38.8838 639.298 38.3715L637.869 23.5551C637.817 23.0132 638.229 22.5305 638.794 22.4813C639.36 22.4221 639.864 22.8261 639.915 23.3679L641.345 38.1843C641.396 38.7262 640.985 39.2089 640.419 39.2581C640.378 39.268 640.347 39.268 640.316 39.268Z" fill="white" fill-opacity="0.2"/>
<path d="M715.88 75.4521C715.633 75.4521 715.386 75.3733 715.191 75.196L713.072 73.3735C712.651 73.009 712.61 72.3883 712.99 71.9844C713.371 71.5805 714.019 71.5411 714.44 71.9056L716.559 73.7281C716.98 74.0926 717.021 74.7132 716.641 75.1172C716.445 75.3437 716.158 75.4521 715.88 75.4521Z" fill="white" fill-opacity="0.2"/>
<path d="M860.487 36.4308C860.466 36.4308 860.446 36.4308 860.425 36.4308C859.86 36.4012 859.428 35.9284 859.459 35.3866L860.281 21.9788C860.312 21.437 860.806 21.0134 861.371 21.0528C861.937 21.0824 862.369 21.5552 862.338 22.0971L861.515 35.5048C861.474 36.0269 861.022 36.4308 860.487 36.4308Z" fill="white" fill-opacity="0.2"/>
<path d="M750.001 20.9149C749.507 20.9149 749.065 20.5701 748.983 20.0873C748.89 19.5554 749.271 19.0431 749.836 18.9544L758.649 17.5752C759.204 17.4866 759.739 17.8511 759.832 18.3929C759.924 18.9347 759.544 19.4372 758.978 19.5258L750.165 20.905C750.114 20.905 750.062 20.9149 750.001 20.9149Z" fill="white" fill-opacity="0.2"/>
<path d="M735.974 115.468C735.686 115.468 735.398 115.35 735.203 115.133L729.598 108.957C729.228 108.543 729.269 107.922 729.701 107.568C730.133 107.213 730.781 107.252 731.151 107.666L736.755 113.843C737.126 114.257 737.085 114.877 736.653 115.232C736.447 115.39 736.21 115.468 735.974 115.468Z" fill="white" fill-opacity="0.2"/>
<path d="M633.354 120C633.077 120 632.809 119.892 632.604 119.685L624.747 111.656C624.356 111.262 624.377 110.631 624.799 110.267C625.21 109.892 625.868 109.912 626.249 110.316L634.105 118.345C634.496 118.739 634.475 119.37 634.054 119.734C633.858 119.911 633.612 120 633.354 120Z" fill="white" fill-opacity="0.2"/>
<path d="M841.195 84.6139C841.051 84.6139 840.897 84.5843 840.753 84.5154L826.284 77.9149C825.77 77.6785 825.554 77.0973 825.801 76.6047C826.048 76.1121 826.665 75.9052 827.168 76.1417L841.637 82.7421C842.152 82.9785 842.367 83.5598 842.121 84.0523C841.946 84.407 841.576 84.6139 841.195 84.6139Z" fill="white" fill-opacity="0.2"/>
<path d="M820.433 57.4241C820.402 57.4241 820.371 57.4241 820.34 57.4241C819.775 57.3748 819.353 56.8921 819.415 56.3503L820.052 49.6908C820.104 49.1489 820.607 48.745 821.173 48.8041C821.739 48.8534 822.16 49.3361 822.099 49.8779L821.461 56.5375C821.41 57.0399 820.957 57.4241 820.433 57.4241Z" fill="white" fill-opacity="0.2"/>
<path d="M799.002 55.3947C798.704 55.3947 798.416 55.2765 798.21 55.04L790.045 45.7305C789.675 45.3167 789.736 44.6961 790.168 44.3414C790.6 43.9868 791.248 44.0459 791.618 44.4597L799.783 53.7692C800.154 54.183 800.092 54.8036 799.66 55.1583C799.475 55.3159 799.238 55.3947 799.002 55.3947Z" fill="white" fill-opacity="0.2"/>
<path d="M608.448 99.4303C608.088 99.4303 607.738 99.2432 607.543 98.9279C607.265 98.4551 607.45 97.8541 607.944 97.5881L616.376 93.1058C616.87 92.8398 617.497 93.0171 617.775 93.49C618.053 93.9628 617.867 94.5638 617.374 94.8298L608.941 99.3121C608.787 99.3909 608.612 99.4303 608.448 99.4303Z" fill="white" fill-opacity="0.2"/>
<path d="M674.684 7.57613C674.19 7.57613 673.759 7.23133 673.666 6.74861L672.74 1.42887C672.648 0.896894 673.028 0.384622 673.584 0.29596C674.139 0.207298 674.674 0.571798 674.766 1.10377L675.692 6.42351C675.784 6.95549 675.404 7.46776 674.849 7.55642C674.797 7.56627 674.735 7.57613 674.684 7.57613Z" fill="white" fill-opacity="0.2"/>
<path d="M710.193 55.7789C709.782 55.7789 709.401 55.5425 709.237 55.1583C709.031 54.6558 709.288 54.0845 709.813 53.8776L723.479 48.6662C724.004 48.4692 724.6 48.7155 724.816 49.2179C725.022 49.7203 724.765 50.2917 724.24 50.4986L710.574 55.7099C710.44 55.7493 710.316 55.7789 710.193 55.7789Z" fill="white" fill-opacity="0.2"/>
<path d="M659.361 45.7699C658.919 45.7699 658.508 45.494 658.374 45.0704C658.21 44.5483 658.518 43.9966 659.063 43.839L670.797 40.4403C671.342 40.2827 671.918 40.5782 672.082 41.1003C672.247 41.6225 671.938 42.1741 671.393 42.3317L659.66 45.7305C659.557 45.76 659.464 45.7699 659.361 45.7699Z" fill="white" fill-opacity="0.2"/>
<path d="M590.811 20.6095C590.318 20.6095 589.886 20.2745 589.804 19.7918L587.017 4.72906C586.914 4.19709 587.294 3.68482 587.85 3.5863C588.415 3.48779 588.94 3.85229 589.043 4.38426L591.829 19.4569C591.932 19.9888 591.552 20.5011 590.997 20.5996C590.935 20.6095 590.873 20.6095 590.811 20.6095Z" fill="white" fill-opacity="0.2"/>
<path d="M667.434 66.3987C667.054 66.3987 666.683 66.1918 666.509 65.847C666.262 65.3544 666.478 64.7634 666.982 64.5269L671.691 62.3399C672.206 62.1035 672.823 62.3104 673.069 62.7931C673.316 63.2856 673.1 63.8767 672.596 64.1132L667.887 66.3002C667.732 66.3593 667.578 66.3987 667.434 66.3987Z" fill="white" fill-opacity="0.2"/>
<path d="M685.523 28.2147C685.286 28.2147 685.04 28.1359 684.844 27.9685L682.818 26.2642C682.386 25.9095 682.345 25.279 682.726 24.8751C683.096 24.4712 683.754 24.422 684.176 24.7865L686.202 26.4908C686.633 26.8454 686.675 27.4759 686.294 27.8798C686.099 28.0965 685.811 28.2147 685.523 28.2147Z" fill="white" fill-opacity="0.2"/>
<path d="M742.905 4.02961C742.555 4.02961 742.216 3.86214 742.021 3.5469C741.733 3.08388 741.887 2.4731 742.381 2.19726L746 0.138321C746.484 -0.137518 747.121 0.0102531 747.409 0.483119C747.697 0.946134 747.543 1.55692 747.049 1.83276L743.429 3.89169C743.265 3.99021 743.09 4.02961 742.905 4.02961Z" fill="white" fill-opacity="0.2"/>
<path d="M611.337 29.3575C610.844 29.3575 610.412 29.0226 610.33 28.5497C610.227 28.0177 610.607 27.5054 611.163 27.4069L619.194 26.0376C619.76 25.9391 620.284 26.3036 620.387 26.8356C620.49 27.3675 620.109 27.8798 619.554 27.9783L611.522 29.3477C611.461 29.3477 611.399 29.3575 611.337 29.3575Z" fill="white" fill-opacity="0.2"/>
<path d="M607.666 6.86682C607.317 6.86682 606.967 6.68949 606.782 6.3841L604.417 2.53221C604.129 2.05935 604.293 1.45841 604.787 1.18257C605.28 0.906736 605.908 1.06436 606.196 1.53722L608.561 5.38911C608.849 5.86198 608.684 6.46291 608.191 6.73875C608.026 6.81756 607.841 6.86682 607.666 6.86682Z" fill="white" fill-opacity="0.2"/>
<path d="M739.697 90.0814C739.409 90.0814 739.131 89.973 738.925 89.7464L734.678 85.1163C734.308 84.7124 734.349 84.0819 734.771 83.7273C735.192 83.3726 735.851 83.412 736.221 83.8159L740.468 88.4461C740.838 88.85 740.797 89.4805 740.375 89.8351C740.18 90.0026 739.933 90.0814 739.697 90.0814Z" fill="white" fill-opacity="0.2"/>
<path d="M735.943 68.8911C735.593 68.8911 735.254 68.7236 735.069 68.4182L733.3 65.6401C733.002 65.1771 733.156 64.5663 733.64 64.2905C734.123 64.0048 734.76 64.1526 735.048 64.6156L736.817 67.3937C737.115 67.8567 736.961 68.4675 736.478 68.7433C736.313 68.8418 736.128 68.8911 735.943 68.8911Z" fill="white" fill-opacity="0.2"/>
<path d="M818.51 30.717C818.468 30.717 818.417 30.717 818.376 30.7071L809.892 29.6333C809.326 29.5644 808.936 29.062 809.008 28.53C809.08 27.9882 809.604 27.6138 810.159 27.6828L818.643 28.7566C819.209 28.8255 819.6 29.3279 819.528 29.8599C819.456 30.3623 819.024 30.717 818.51 30.717Z" fill="white" fill-opacity="0.2"/>
<path d="M662.303 23.1413C661.912 23.1413 661.531 22.9246 661.367 22.5601L655.022 8.90605C654.796 8.41348 655.022 7.8224 655.546 7.60567C656.071 7.38894 656.678 7.60567 656.904 8.10809L663.249 21.7522C663.475 22.2448 663.249 22.8359 662.724 23.0526C662.591 23.1117 662.447 23.1413 662.303 23.1413Z" fill="white" fill-opacity="0.2"/>
<path d="M665.264 91.234C664.894 91.234 664.534 91.0369 664.349 90.702L660.092 82.9096C659.824 82.4268 660.02 81.8358 660.524 81.5796C661.027 81.3235 661.644 81.5107 661.912 81.9934L666.18 89.7858C666.447 90.2685 666.252 90.8596 665.748 91.1158C665.583 91.1946 665.429 91.234 665.264 91.234Z" fill="white" fill-opacity="0.2"/>
<path d="M765.272 38.667C764.943 38.667 764.624 38.5193 764.428 38.2434C764.099 37.8001 764.212 37.1795 764.675 36.8741L775.73 29.4462C776.193 29.1309 776.841 29.2393 777.159 29.6826C777.489 30.1259 777.375 30.7465 776.913 31.0519L765.858 38.4799C765.673 38.6079 765.467 38.667 765.272 38.667Z" fill="white" fill-opacity="0.2"/>
<path d="M640.07 99.1939C639.833 99.1939 639.586 99.1151 639.391 98.9476C638.959 98.593 638.918 97.9625 639.298 97.5586L641.057 95.6277C641.427 95.2139 642.075 95.1745 642.507 95.539C642.939 95.8937 642.98 96.5242 642.599 96.9281L640.841 98.859C640.645 99.0855 640.358 99.1939 640.07 99.1939Z" fill="white" fill-opacity="0.2"/>
<path d="M688.629 51.2867C688.454 51.2867 688.279 51.2473 688.114 51.1586C687.621 50.8926 687.456 50.2818 687.734 49.809L691.59 43.3662C691.868 42.8933 692.495 42.7258 692.999 43.0017C693.493 43.2676 693.657 43.8784 693.38 44.3513L689.523 50.7941C689.328 51.1093 688.988 51.2867 688.629 51.2867Z" fill="white" fill-opacity="0.2"/>
<path d="M659.146 111.922C659.084 111.922 659.012 111.912 658.94 111.902L655.443 111.242C654.888 111.134 654.528 110.622 654.631 110.08C654.744 109.548 655.279 109.193 655.845 109.301L659.341 109.961C659.896 110.07 660.256 110.582 660.153 111.124C660.05 111.597 659.619 111.922 659.146 111.922Z" fill="white" fill-opacity="0.2"/>
<path d="M648.009 64.0639C647.659 64.0639 647.32 63.8964 647.124 63.5812L643.288 57.4339C643 56.9709 643.155 56.3601 643.648 56.0843C644.132 55.8084 644.769 55.9562 645.057 56.4291L648.893 62.5763C649.181 63.0393 649.027 63.6501 648.533 63.926C648.368 64.0245 648.183 64.0639 648.009 64.0639Z" fill="white" fill-opacity="0.2"/>
<path d="M592.806 41.3368C592.724 41.3368 592.632 41.3269 592.549 41.3072L588.23 40.2334C587.685 40.0955 587.346 39.5635 587.49 39.0315C587.634 38.5094 588.189 38.1942 588.744 38.3223L593.063 39.3961C593.609 39.534 593.948 40.0659 593.804 40.5979C593.681 41.0412 593.269 41.3368 592.806 41.3368Z" fill="white" fill-opacity="0.2"/>
<path d="M807.65 88.0323C807.187 88.0323 806.766 87.7368 806.653 87.2836L803.053 73.4621C802.92 72.9302 803.249 72.3982 803.804 72.2701C804.349 72.142 804.915 72.4573 805.048 72.9893L808.648 86.8107C808.781 87.3427 808.452 87.8747 807.897 88.0028C807.815 88.0225 807.732 88.0323 807.65 88.0323Z" fill="white" fill-opacity="0.2"/>
</svg>
