<svg width="19" height="19" viewBox="0 0 19 19" fill="none" xmlns="http://www.w3.org/2000/svg">
<path d="M18.4377 3.24481C19.1795 2.50297 19.1795 1.29822 18.4377 0.55638C17.6958 -0.18546 16.4911 -0.18546 15.7493 0.55638L9.5 6.81157L3.24481 0.562314C2.50297 -0.179525 1.29822 -0.179525 0.55638 0.562314C-0.18546 1.30415 -0.18546 2.5089 0.55638 3.25074L6.81157 9.5L0.562315 15.7552C-0.179525 16.497 -0.179525 17.7018 0.562315 18.4436C1.30415 19.1855 2.5089 19.1855 3.25074 18.4436L9.5 12.1884L15.7552 18.4377C16.497 19.1795 17.7018 19.1795 18.4436 18.4377C19.1855 17.6958 19.1855 16.4911 18.4436 15.7493L12.1884 9.5L18.4377 3.24481Z" fill="black"/>
</svg>
