<svg width="20" height="19" viewBox="0 0 20 19" fill="none" xmlns="http://www.w3.org/2000/svg">
<path d="M0 2C0 1.17031 0.638393 0.5 1.42857 0.5H18.5714C19.3616 0.5 20 1.17031 20 2C20 2.82969 19.3616 3.5 18.5714 3.5H1.42857C0.638393 3.5 0 2.82969 0 2ZM0 9.5C0 8.67031 0.638393 8 1.42857 8H10H18.5714C19.3616 8 20 8.67031 20 9.5C20 10.3297 19.3616 11 18.5714 11H1.42857C0.638393 11 0 10.3297 0 9.5ZM20 17C20 17.8297 19.3616 18.5 18.5714 18.5H1.42857C0.638393 18.5 0 17.8297 0 17C0 16.1703 0.638393 15.5 1.42857 15.5H18.5714C19.3616 15.5 20 16.1703 20 17Z" fill="#111111"/>
</svg>
